<?xml version="1.0" encoding="utf-8"?>
<!-- Generator: Adobe Illustrator 19.0.0, SVG Export Plug-In . SVG Version: 6.00 Build 0)  -->
<svg version="1.1" id="Layer_1" xmlns="http://www.w3.org/2000/svg" xmlns:xlink="http://www.w3.org/1999/xlink" x="0px" y="0px"
	 width="270px" height="60px" viewBox="0 0 270 60" enable-background="new 0 0 270 60" xml:space="preserve">
<path id="XMLID_59_" fill="#FFFFFF" d="M17.8,22.7h10.4l-0.5,1.7c0,0-0.4,1.2-1,2.2c-0.6,1-1.4,1.5-3.1,2c-1.6,0.5-4.4,0.5-6.5,0.5
	c-1.6,0-4.8-0.2-5.5-0.5c-0.5-0.1-1.6-0.5-2.1-1.4c-0.5-1,0-3,0-3s2.6-12.1,2.8-13.1c0.4-1.2,1.1-2.2,1.8-2.8c0.7-0.5,2.1-1,3.2-1.2
	c0.9-0.1,3.2-0.2,4.9-0.2c1.2,0,4.3,0.1,5.3,0.2c0.9,0.1,2.3,0.2,3.1,1.2c0.5,0.6,0.1,1.8,0.1,1.8l-0.4,1.6h9.1c0,0,0.5-2.5,0.5-2.7
	c0-0.4,0.4-2.7-0.2-4.2c-0.9-2.1-2.3-3.2-4.9-4.1C32,0.1,25.2,0,23.7,0c-1.4,0-5.7,0.1-7.4,0.5S11,1.1,7.5,4.1s-4.9,9.2-4.9,9.2
	l-1.8,9.4c0,0-0.2,0.9-0.4,1.5c-0.2,1.4-0.9,4.3,0.9,7.4s6.8,3.9,7.3,4.1c0.5,0.1,4.7,0.7,11.1,0.5s11.8-1.2,14.4-4.2
	s3.2-6.8,3.2-6.8l1.7-8.6H19.3L17.8,22.7z"/>
<path id="XMLID_57_" fill="#FFFFFF" d="M62.9,17.5c0,0,1,0,2-0.2c1.1-0.2,1.8-0.6,2.7-1.5c0.9-0.9,1.1-2,1.4-3.1s0.6-3.7,0.6-3.8
	c0-0.1,0-0.9-0.9-1.4C67.7,7,65.1,7,65.1,7H53.9l-2.2,10.2L62.9,17.5z M47.9,35.6h-9.2l7.5-35.3h21.3c0,0,4.6-0.1,7.6,1.4
	c3,1.4,3.5,4.1,3.5,4.4c0.1,0.5,0.4,2.3-0.2,4.7c-0.5,2.5-1,3.9-1.5,5.3c-0.5,1.4-1.4,2.2-2.2,3.1c-1.1,1-3.2,1.6-3.2,1.6
	s1.7,0.6,2.5,1.8c0.7,1.4,0.7,2.5,0.6,4.1c0,0.9-0.4,2.1-0.4,2.1l-1.4,6.9h-9.2l1.6-7.9c0,0,0.4-1.4-0.2-2.2c-0.6-0.9-1.5-1-2.1-1
	h-0.7h-0.6h-1.1H50.2L47.9,35.6z"/>
<path id="XMLID_54_" fill="#FFFFFF" d="M252.9,17.5c0,0,1,0,2-0.2c1.1-0.2,1.8-0.6,2.7-1.5c0.9-1,1.1-2,1.4-3.1s0.6-3.7,0.6-3.8
	c0-0.1,0-0.9-0.9-1.4c-1-0.5-3.6-0.5-3.6-0.5h-11.2l-2.2,10.2L252.9,17.5z M238,35.6h-9.2l7.5-35.3h21.3c0,0,4.6-0.1,7.6,1.4
	c3,1.4,3.5,4.1,3.5,4.4c0.1,0.5,0.4,2.3-0.2,4.7c-0.5,2.5-1,3.9-1.5,5.3c-0.6,1.4-1.4,2.2-2.2,3.1c-1.1,1-3.2,1.6-3.2,1.6
	s1.7,0.6,2.5,1.8c0.7,1.4,0.7,2.5,0.6,4.1c0,0.9-0.4,2.1-0.4,2.1l-1.4,6.8h-9.2l1.6-7.9c0,0,0.4-1.4-0.2-2.2c-0.6-0.9-1.5-1-2.1-1
	h-0.7h-0.6h-1.1h-10.2L238,35.6z"/>
<path id="XMLID_51_" fill="#FFFFFF" d="M103.5,22.9l-2.8-15.2l-9.2,15.2H103.5z M74.1,35.6L95.8,0.4h12.3l7,35.3h-9.5l-1.2-6.4H87.8
	l-3.9,6.4L74.1,35.6z"/>
<path id="XMLID_47_" fill="#FFFFFF" d="M141.1,14.5c0,0,1.1,0,2.1-0.1c1-0.1,1.7-0.4,2.5-0.9c0.7-0.6,1.1-1.4,1.4-2.1
	c0.2-0.7,0.5-2,0.5-2.6c0-0.6-0.2-1.1-1.2-1.4c-1.1-0.2-2.8-0.2-2.8-0.2h-11l-1.5,7.1h10.4 M139.3,28.7c0,0,1,0,1.6-0.1
	c0.9-0.1,1.6-0.2,2.3-0.7c0.6-0.5,1-1,1.4-1.6c0.2-0.7,0.7-2.5,0.7-3.2s-0.1-1.4-1-1.7c-0.7-0.4-3-0.4-3-0.4h-11.7l-1.6,7.9
	L139.3,28.7z M117.4,35.6l7.5-35.4h21.7c0,0,6,0,8.3,1.7c1.7,1.4,2.2,2.7,2.1,5.4s-1,4.8-1.4,5.8c-0.5,1.1-1.4,2-2,2.7
	c-1,0.9-2.3,1.4-2.3,1.4s1.4,0.5,2.3,1.4c0.9,1,1.4,2.3,1.4,3.9c-0.1,1.5-0.6,4.1-1,5.2c-0.5,1.2-0.9,2.3-1.7,3.6
	c-1,1.2-2.6,2.6-4.9,3.5c-2.7,0.9-4.4,0.9-6,1c-1.5,0.1-2.3,0-2.3,0L117.4,35.6z"/>
<path id="XMLID_43_" fill="#FFFFFF" d="M179.9,14.5c0,0,1.1,0,2.1-0.1s1.7-0.4,2.5-0.9c0.7-0.6,1.1-1.4,1.4-2.1
	c0.2-0.7,0.5-2,0.5-2.6c0-0.6-0.2-1.1-1.2-1.4c-1.1-0.2-2.8-0.2-2.8-0.2h-11l-1.5,7.1h10.1V14.5z M178.4,28.7c0,0,1,0,1.6-0.1
	c0.9-0.1,1.6-0.2,2.3-0.7c0.6-0.5,1-1,1.4-1.6c0.4-0.6,0.7-2.5,0.7-3.2s-0.1-1.4-1-1.7c-0.9-0.4-3.1-0.4-3.1-0.4h-11.7l-1.6,7.9
	L178.4,28.7z M156.2,35.6l7.5-35.4h21.7c0,0,6,0,8.3,1.7c1.7,1.4,2.2,2.7,2.1,5.4s-1,4.8-1.4,5.8c-0.5,1.1-1.4,2-2,2.7
	c-1,0.9-2.3,1.4-2.3,1.4s1.4,0.5,2.3,1.4c0.9,1,1.4,2.3,1.4,3.9c-0.1,1.5-0.6,4.1-1,5.2c-0.5,1.2-0.9,2.3-1.7,3.6
	c-1,1.2-2.5,2.6-4.9,3.5c-2.7,0.9-4.4,0.9-6,1c-1.5,0.1-2.3,0-2.3,0L156.2,35.6z"/>
<polyline id="XMLID_42_" fill="#FFFFFF" points="194.8,35.6 202.2,0.4 231.7,0.4 230.2,7.3 210,7.3 208.5,14.4 227.6,14.4 
	226.2,21.1 207,21.1 205.4,28.7 225.6,28.7 224.3,35.6 194.8,35.6 "/>
<path id="XMLID_36_" fill="#231F20" d="M11.4,45.2v4.1c-0.5-0.6-1.1-1.1-1.5-1.4c-0.5-0.2-1.1-0.4-1.6-0.4c-1.1,0-2,0.4-2.6,1.1
	c-0.9,0.9-1.2,1.8-1.2,3.1c0,1.1,0.4,2,1.1,2.8c0.7,0.7,1.5,1.1,2.6,1.1c0.6,0,1.2-0.1,1.6-0.4c0.5-0.2,1.1-0.7,1.5-1.4v4.1
	c-0.6,0.2-1.2,0.5-1.7,0.7C8.9,58.9,8.3,59,7.8,59c-0.7,0-1.4-0.1-2.1-0.2c-0.6-0.2-1.2-0.5-1.7-0.9c-1.1-0.7-1.8-1.5-2.3-2.6
	c-0.6-1.1-0.9-2.2-0.9-3.6c0-1.1,0.1-2,0.5-3c0.4-0.9,0.9-1.6,1.5-2.3S4.1,45.2,5,45c0.9-0.4,1.7-0.5,2.7-0.5c0.6,0,1.2,0.1,1.7,0.2
	C10.2,44.7,10.8,45,11.4,45.2z"/>
<path id="XMLID_33_" fill="#231F20" d="M20.4,55.8c1.1,0,1.8-0.4,2.6-1.2s1.1-1.7,1.1-3c0-1.2-0.4-2.1-1.1-3s-1.5-1.2-2.6-1.2
	c-1.1,0-1.8,0.4-2.6,1.2s-1.1,1.7-1.1,3c0,1.2,0.4,2.1,1.1,3C18.4,55.3,19.3,55.8,20.4,55.8 M27.9,51.8c0,1.1-0.2,1.8-0.6,2.8
	c-0.4,0.9-1,1.6-1.6,2.3c-0.7,0.7-1.5,1.2-2.5,1.5c-1,0.4-1.8,0.6-2.8,0.6c-1,0-2-0.2-2.8-0.6c-1-0.4-1.7-1-2.3-1.5
	c-0.7-0.7-1.4-1.5-1.6-2.3c-0.4-0.9-0.6-1.7-0.6-2.8c0-1,0.2-1.8,0.6-2.8c0.4-0.9,1-1.6,1.6-2.3c0.7-0.7,1.5-1.2,2.3-1.5
	c1-0.4,1.8-0.6,2.8-0.6c1,0,1.8,0.2,2.8,0.6s1.7,1,2.5,1.5c0.7,0.7,1.2,1.4,1.6,2.3C27.7,49.8,27.9,50.8,27.9,51.8"/>
<path id="XMLID_32_" fill="#231F20" d="M30.3,58.7V44.7H34l5.3,7.1c0.1,0.1,0.2,0.5,0.5,0.9c0.2,0.5,0.5,1,0.9,1.5
	c-0.2-0.5-0.2-1-0.2-1.5s0-0.9,0-1.2v-6.8h3.7v13.9h-3.7l-5.4-7.1c-0.1-0.1-0.2-0.5-0.5-0.9c-0.2-0.5-0.5-1-0.7-1.5
	c0.1,0.6,0.1,1.1,0.1,1.5c0,0.5,0,0.9,0,1.2v6.8H30.3z"/>
<path id="XMLID_31_" fill="#231F20" d="M45.8,57.1c0.7,0.7,1.5,1.2,2.3,1.5c0.9,0.4,1.6,0.5,2.6,0.5c1.6,0,3-0.5,3.9-1.4
	c1-1,1.4-2.1,1.4-3.6c0-0.6-0.1-1.1-0.2-1.6c-0.1-0.5-0.5-1-0.7-1.2c-0.5-0.5-1.5-1-3.1-1.4h-0.1c-0.7-0.2-1.2-0.4-1.4-0.6
	s-0.4-0.5-0.4-0.9s0.1-0.6,0.5-0.9c0.2-0.2,0.7-0.4,1.1-0.4c0.5,0,1,0.1,1.4,0.2c0.5,0.2,1,0.5,1.4,0.9l1.2-2.7
	c-0.6-0.5-1.4-0.7-2-1c-1-0.1-1.6-0.2-2.5-0.2c-1.4,0-2.6,0.5-3.5,1.4c-1,0.9-1.4,1.8-1.4,3.3c0,1.1,0.2,1.8,0.9,2.5
	c0.6,0.6,1.5,1.1,3,1.4c1,0.2,1.6,0.5,1.8,0.9c0.2,0.2,0.5,0.6,0.5,1.1s-0.1,0.9-0.5,1.1s-0.7,0.4-1.4,0.4s-1.1-0.1-1.6-0.5
	c-0.6-0.4-1.1-0.9-1.6-1.4L45.8,57.1z"/>
<polygon id="XMLID_30_" fill="#231F20" points="60.2,58.7 60.2,48.1 57.1,48.1 57.1,44.7 67.1,44.7 67.1,48.1 63.9,48.1 63.9,58.7 
	"/>
<path id="XMLID_27_" fill="#231F20" d="M72.5,51.4h0.7c0.9,0,1.4-0.1,1.7-0.5c0.4-0.2,0.6-0.7,0.6-1.4c0-0.7-0.2-1.2-0.5-1.5
	c-0.4-0.4-1-0.5-1.7-0.5h-0.7L72.5,51.4L72.5,51.4z M69,58.7V44.7H73c1.5,0,2.6,0.1,3.3,0.2c0.6,0.1,1.2,0.4,1.5,0.7
	c0.5,0.4,1,0.9,1.2,1.4c0.2,0.6,0.4,1.4,0.4,2c0,1.1-0.2,2-0.9,2.6c-0.6,0.7-1.4,1.2-2.3,1.4l3.8,5.7h-4.2l-3.2-5.4v5.4
	C72.7,58.7,69,58.7,69,58.7z"/>
<path id="XMLID_26_" fill="#231F20" d="M81.4,50.7V52c0,1.5,0.1,2.7,0.2,3.5c0.2,0.7,0.5,1.4,1,1.8s1.2,1,2,1.4
	c0.9,0.2,1.8,0.5,3.1,0.5s2.2-0.1,3.1-0.5c0.9-0.2,1.5-0.7,2-1.4c0.5-0.5,0.7-1.2,1-1.8C94,54.7,94,53.6,94,52v-7.3h-3.8v6.8
	c0,1,0,1.7-0.1,2.1c0,0.5-0.1,0.9-0.2,1.1c-0.1,0.4-0.4,0.6-0.9,0.9c-0.4,0.2-0.9,0.2-1.4,0.2s-1-0.1-1.4-0.2
	c-0.4-0.2-0.6-0.5-0.7-0.9c-0.1-0.2-0.2-0.7-0.2-1.1c0-0.5-0.1-1.2-0.1-2.1v-6.8h-3.8L81.4,50.7L81.4,50.7z"/>
<path id="XMLID_25_" fill="#231F20" d="M106.7,45.2v4.1c-0.5-0.6-1.1-1.1-1.5-1.4c-0.5-0.2-1.1-0.4-1.6-0.4c-1.1,0-2,0.4-2.6,1.1
	c-0.7,0.7-1.1,1.7-1.1,3c0,1.1,0.4,2,1.1,2.8c0.7,0.7,1.5,1.1,2.6,1.1c0.6,0,1.2-0.1,1.6-0.4c0.4-0.2,1.1-0.7,1.5-1.4v4.1
	c-0.6,0.2-1.2,0.5-1.7,0.7c-0.6,0.1-1.2,0.2-1.7,0.2c-0.7,0-1.4-0.1-2.1-0.2c-0.6-0.2-1.2-0.5-1.7-0.9c-1.1-0.7-1.8-1.5-2.3-2.6
	c-0.6-1.1-0.9-2.2-0.9-3.6c0-1.1,0.1-2,0.5-3c0.4-0.9,0.9-1.6,1.5-2.3c0.7-0.7,1.4-1.2,2.2-1.5c0.9-0.4,1.7-0.5,2.7-0.5
	c0.6,0,1.2,0.1,1.7,0.2C105.6,44.7,106.2,45,106.7,45.2z"/>
<polygon id="XMLID_24_" fill="#231F20" points="110.9,58.7 110.9,48.1 107.8,48.1 107.8,44.7 117.8,44.7 117.8,48.1 114.7,48.1 
	114.7,58.7 "/>
<rect id="XMLID_23_" x="119.9" y="44.7" fill="#231F20" width="3.9" height="13.9"/>
<path id="XMLID_20_" fill="#231F20" d="M133.7,55.8c1.1,0,1.8-0.4,2.6-1.2s1.1-1.7,1.1-3c0-1.2-0.4-2.1-1.1-3s-1.5-1.2-2.6-1.2
	c-1.1,0-1.8,0.4-2.6,1.2s-1.1,1.7-1.1,3c0,1.2,0.4,2.1,1.1,3C131.6,55.3,132.4,55.8,133.7,55.8 M141.1,51.8c0,1.1-0.2,1.8-0.6,2.8
	c-0.4,0.9-1,1.6-1.6,2.3c-0.7,0.7-1.5,1.2-2.5,1.5c-1,0.4-1.8,0.6-2.8,0.6s-2-0.2-2.8-0.6c-1-0.4-1.7-1-2.3-1.5
	c-0.7-0.7-1.4-1.5-1.6-2.3c-0.4-0.9-0.6-1.7-0.6-2.8c0-1,0.2-1.8,0.6-2.8c0.4-0.9,1-1.6,1.6-2.3c0.7-0.7,1.5-1.2,2.3-1.5
	c1-0.4,1.8-0.6,2.8-0.6s1.8,0.2,2.8,0.6s1.7,1,2.5,1.5c0.7,0.7,1.2,1.4,1.6,2.3C140.8,49.8,141.1,50.8,141.1,51.8"/>
<path id="XMLID_19_" fill="#231F20" d="M143.4,58.7V44.7h3.7l5.3,7.1c0.1,0.1,0.2,0.5,0.5,0.9c0.2,0.5,0.5,1,0.9,1.5
	c-0.1-0.6-0.1-1.1-0.1-1.5c0-0.5,0-0.9,0-1.2v-6.8h3.7v13.9h-3.7l-5.3-7.1c-0.1-0.1-0.2-0.5-0.5-0.9c-0.2-0.5-0.5-1-0.7-1.5
	c0.1,0.6,0.1,1.1,0.1,1.5c0,0.5,0,0.9,0,1.2v6.8H143.4z"/>
<path id="XMLID_16_" fill="#231F20" d="M169.7,51h0.7c1,0,1.5-0.1,1.8-0.4s0.6-0.7,0.6-1.4s-0.2-1-0.6-1.4c-0.4-0.2-1-0.4-1.8-0.4
	h-0.7V51z M169.7,58.7h-3.6V44.7h4.1c1.5,0,2.6,0.1,3.3,0.2c0.6,0.1,1.2,0.4,1.6,0.9c0.5,0.5,1,1,1.2,1.6s0.4,1.4,0.4,2.1
	s-0.1,1.5-0.4,2.2c-0.2,0.6-0.7,1.2-1.2,1.5c-0.4,0.4-0.9,0.5-1.4,0.7c-0.6,0.1-1.4,0.2-2.6,0.2h-1.4L169.7,58.7L169.7,58.7z"/>
<path id="XMLID_13_" fill="#231F20" d="M182.1,51.4h0.7c0.9,0,1.4-0.1,1.7-0.5c0.4-0.2,0.6-0.7,0.6-1.4c0-0.7-0.2-1.2-0.5-1.5
	c-0.4-0.4-1-0.5-1.7-0.5h-0.7L182.1,51.4L182.1,51.4z M178.4,58.7V44.7h4.1c1.5,0,2.6,0.1,3.3,0.2c0.6,0.1,1.2,0.4,1.5,0.7
	c0.5,0.4,1,0.9,1.2,1.4c0.2,0.6,0.4,1.4,0.4,2c0,1.1-0.2,2-0.9,2.6c-0.6,0.7-1.4,1.2-2.3,1.4l3.8,5.7h-4.2l-3.2-5.4v5.4
	C182.1,58.7,178.4,58.7,178.4,58.7z"/>
<path id="XMLID_10_" fill="#231F20" d="M197.9,55.8c1.1,0,1.8-0.4,2.6-1.2c0.7-0.9,1.1-1.7,1.1-3c0-1.2-0.4-2.1-1.1-3
	c-0.7-0.9-1.5-1.2-2.6-1.2c-1.1,0-1.8,0.4-2.6,1.2s-1.1,1.7-1.1,3c0,1.2,0.4,2.1,1.1,3C195.8,55.3,196.8,55.8,197.9,55.8
	 M205.3,51.8c0,1.1-0.2,1.8-0.6,2.8c-0.4,0.9-1,1.6-1.6,2.3c-0.7,0.7-1.5,1.2-2.5,1.5c-1,0.4-1.8,0.6-2.8,0.6s-2-0.2-2.8-0.6
	c-1-0.4-1.7-1-2.3-1.5c-0.7-0.7-1.4-1.5-1.6-2.3c-0.4-0.9-0.6-1.7-0.6-2.8c0-1,0.2-1.8,0.6-2.8c0.4-0.9,1-1.6,1.6-2.3
	c0.7-0.7,1.5-1.2,2.3-1.5c1-0.4,1.8-0.6,2.8-0.6s1.8,0.2,2.8,0.6s1.7,1,2.5,1.5c0.7,0.7,1.2,1.4,1.6,2.3
	C205,49.8,205.3,50.8,205.3,51.8"/>
<path id="XMLID_7_" fill="#231F20" d="M211.5,55.5h0.6c1.5,0,2.6-0.4,3.3-1c0.7-0.6,1.1-1.5,1.1-3c0-1.4-0.4-2.3-1.1-3s-1.7-1-3.3-1
	h-0.6V55.5z M207.6,58.7V44.7h3c2.1,0,3.7,0.1,4.6,0.4c1,0.2,1.6,0.6,2.3,1.1c0.9,0.6,1.5,1.4,2,2.3c0.5,1,0.7,2,0.7,3.3
	c0,1.2-0.2,2.3-0.7,3.3c-0.5,1-1.2,1.7-2,2.3c-0.7,0.5-1.4,0.9-2.3,1.1c-0.9,0.2-2.2,0.4-4.1,0.4h-0.6h-3v-0.4H207.6z"/>
<path id="XMLID_6_" fill="#231F20" d="M222.5,50.7V52c0,1.5,0.1,2.7,0.2,3.5c0.2,0.7,0.5,1.4,1,1.8s1.2,1,2,1.4
	c0.9,0.2,1.8,0.5,3.1,0.5c1.2,0,2.2-0.1,3.1-0.5c0.9-0.2,1.5-0.7,2-1.4c0.5-0.5,0.7-1.2,1-1.8c0.2-0.7,0.2-1.8,0.2-3.5v-7.3h-3.8
	v6.8c0,1,0,1.7-0.1,2.1c0,0.5-0.1,0.9-0.2,1.1c-0.1,0.4-0.4,0.6-0.9,0.9c-0.4,0.2-0.9,0.2-1.4,0.2s-1-0.1-1.4-0.2
	c-0.4-0.2-0.6-0.5-0.7-0.9c-0.1-0.2-0.2-0.7-0.2-1.1c0-0.5-0.1-1.2-0.1-2.1v-6.8h-3.8L222.5,50.7L222.5,50.7z"/>
<path id="XMLID_5_" fill="#231F20" d="M247.8,45.2v4.1c-0.5-0.6-1.1-1.1-1.5-1.4c-0.5-0.2-1.1-0.4-1.6-0.4c-1.1,0-2,0.4-2.6,1.1
	c-0.7,0.7-1.1,1.7-1.1,3c0,1.1,0.4,2,1.1,2.8c0.7,0.7,1.5,1.1,2.6,1.1c0.6,0,1.2-0.1,1.6-0.4c0.5-0.2,1.1-0.7,1.5-1.4v4.1
	c-0.6,0.2-1.2,0.5-1.7,0.7c-0.6,0.1-1.2,0.2-1.7,0.2c-0.7,0-1.4-0.1-2.1-0.2c-0.6-0.2-1.2-0.5-1.7-0.9c-1.1-0.7-1.8-1.5-2.3-2.6
	c-0.6-1.1-0.9-2.2-0.9-3.6c0-1.1,0.1-2,0.5-3c0.4-0.9,0.9-1.6,1.5-2.3c0.6-0.7,1.4-1.2,2.2-1.5c0.9-0.4,1.7-0.5,2.7-0.5
	c0.6,0,1.2,0.1,1.7,0.2C246.7,44.7,247.2,45,247.8,45.2z"/>
<polygon id="XMLID_4_" fill="#231F20" points="252.1,58.7 252.1,48.1 248.9,48.1 248.9,44.7 258.9,44.7 258.9,48.1 255.8,48.1 
	255.8,58.7 "/>
<path id="XMLID_3_" fill="#231F20" d="M259.8,57.1c0.7,0.7,1.5,1.2,2.3,1.5c0.9,0.4,1.6,0.5,2.6,0.5c1.6,0,3-0.5,3.9-1.4
	c1-1,1.4-2.1,1.4-3.6c0-0.6-0.1-1.1-0.2-1.6c-0.1-0.5-0.5-1-0.7-1.2c-0.5-0.5-1.5-1-3.1-1.4h-0.1c-0.7-0.2-1.2-0.4-1.4-0.6
	c-0.2-0.2-0.4-0.5-0.4-0.9s0.1-0.6,0.5-0.9c0.2-0.2,0.7-0.4,1.1-0.4c0.5,0,1,0.1,1.4,0.2c0.5,0.2,1,0.5,1.4,0.9l1.2-2.7
	c-0.6-0.5-1.4-0.7-2-1c-0.7-0.2-1.4-0.4-2.2-0.4c-1.4,0-2.6,0.5-3.5,1.4c-1,0.9-1.4,1.8-1.4,3.3c0,1.1,0.2,1.8,0.9,2.5
	c0.6,0.6,1.5,1.1,3,1.4c1,0.2,1.6,0.5,1.8,0.9c0.2,0.2,0.5,0.6,0.5,1.1s-0.1,0.9-0.5,1.1c-0.4,0.2-0.7,0.4-1.4,0.4s-1.1-0.1-1.6-0.5
	c-0.5-0.4-1.1-0.9-1.6-1.4L259.8,57.1z"/>
</svg>
