<?xml version="1.0" encoding="utf-8"?>
<!-- Generator: Adobe Illustrator 19.0.0, SVG Export Plug-In . SVG Version: 6.00 Build 0)  -->
<svg version="1.1" id="Layer_1" xmlns="http://www.w3.org/2000/svg" xmlns:xlink="http://www.w3.org/1999/xlink" x="0px" y="0px"
	 width="231px" height="46px" viewBox="0 0 231 46" enable-background="new 0 0 231 46" xml:space="preserve">
<g id="XMLID_2_">
	<path id="XMLID_59_" fill="#FFFFFF" d="M15.5,19.2h8.8l-0.4,1.5c0,0-0.3,1-0.8,1.9c-0.5,0.9-1.2,1.3-2.6,1.7
		c-1.4,0.4-3.8,0.4-5.5,0.4c-1.4,0-4.1-0.2-4.7-0.4c-0.4-0.1-1.4-0.4-1.8-1.2c-0.4-0.8,0-2.5,0-2.5s2.2-10.2,2.4-11.1
		c0.3-1,0.9-1.9,1.6-2.4c0.6-0.4,1.8-0.8,2.7-1c0.7-0.1,2.7-0.2,4.2-0.2c1,0,3.7,0.1,4.5,0.2c0.7,0.1,2,0.2,2.6,1
		c0.4,0.5,0.1,1.6,0.1,1.6l-0.3,1.4H34c0,0,0.4-2.1,0.4-2.3c0-0.3,0.3-2.3-0.2-3.6c-0.7-1.8-2-2.7-4.2-3.4C27.5,0.1,21.7,0,20.5,0
		c-1.1,0-4.8,0.1-6.3,0.4c-1.5,0.3-4.5,0.5-7.5,3c-3,2.5-4.2,7.8-4.2,7.8l-1.6,7.9c0,0-0.2,0.7-0.3,1.3c-0.2,1.2-0.7,3.7,0.7,6.3
		c1.4,2.6,5.7,3.3,6.2,3.4c0.5,0.1,4,0.6,9.4,0.4c5.4-0.2,10-1,12.2-3.6c2.2-2.6,2.7-5.8,2.7-5.8l1.5-7.3H16.7L15.5,19.2z"/>
	<path id="XMLID_57_" fill="#FFFFFF" d="M53.7,14.9c0,0,0.8,0,1.7-0.2c0.9-0.2,1.6-0.5,2.3-1.3c0.7-0.8,0.9-1.7,1.1-2.6
		c0.2-0.9,0.5-3.1,0.5-3.2c0-0.1,0-0.7-0.7-1.1c-0.8-0.4-3-0.4-3-0.4h-9.5l-1.9,8.7L53.7,14.9z M41,30.2h-7.8l6.4-29.9h18.1
		c0,0,3.9-0.1,6.5,1.1c2.5,1.2,2.9,3.5,2.9,3.8c0.1,0.4,0.3,2-0.2,4c-0.4,2.1-0.8,3.3-1.3,4.5c-0.5,1.2-1.2,1.9-1.9,2.6
		c-0.9,0.8-2.7,1.4-2.7,1.4s1.5,0.5,2.1,1.6c0.6,1.2,0.6,2.1,0.5,3.4c0,0.7-0.3,1.8-0.3,1.8l-1.2,5.8h-7.8l1.4-6.7
		c0,0,0.3-1.2-0.2-1.9c-0.5-0.7-1.3-0.8-1.8-0.8l-0.6,0l-0.5,0l-0.9,0H43L41,30.2z"/>
	<path id="XMLID_54_" fill="#FFFFFF" d="M214.9,14.9c0,0,0.8,0,1.7-0.2c0.9-0.2,1.6-0.5,2.3-1.3c0.7-0.8,0.9-1.7,1.1-2.6
		c0.2-0.9,0.5-3.1,0.5-3.2c0-0.1,0-0.7-0.7-1.1c-0.8-0.4-3-0.4-3-0.4h-9.5l-1.9,8.7L214.9,14.9z M202.2,30.2h-7.8l6.4-29.9h18.1
		c0,0,3.9-0.1,6.5,1.1c2.5,1.2,2.9,3.5,2.9,3.8c0.1,0.4,0.3,2-0.2,4c-0.4,2.1-0.8,3.3-1.3,4.5c-0.5,1.2-1.2,1.9-1.9,2.6
		c-0.9,0.8-2.7,1.4-2.7,1.4s1.5,0.5,2.1,1.6c0.6,1.2,0.6,2.1,0.5,3.4c0,0.7-0.3,1.8-0.3,1.8l-1.2,5.8h-7.8l1.4-6.7
		c0,0,0.3-1.2-0.2-1.9c-0.5-0.7-1.3-0.8-1.8-0.8l-0.6,0l-0.5,0l-0.9,0h-8.7L202.2,30.2z"/>
	<path id="XMLID_51_" fill="#FFFFFF" d="M88.1,19.5L85.7,6.6l-7.8,12.9H88.1z M63.2,30.2L81.6,0.3h10.5l6,29.9h-8l-1-5.4H74.8
		l-3.3,5.4L63.2,30.2z"/>
	<path id="XMLID_47_" fill="#FFFFFF" d="M120,12.3c0,0,0.9,0,1.8-0.1c0.8-0.1,1.5-0.3,2.1-0.7c0.6-0.5,0.9-1.2,1.1-1.8
		c0.2-0.6,0.4-1.7,0.4-2.2c0-0.5-0.2-0.9-1-1.1c-0.9-0.2-2.4-0.2-2.4-0.2h-9.3l-1.3,6.1l8.8,0 M118.6,24.4c0,0,0.8,0,1.4-0.1
		c0.7-0.1,1.4-0.2,2-0.6c0.5-0.4,0.8-0.8,1.1-1.4c0.2-0.6,0.6-2.1,0.6-2.7c0-0.6-0.1-1.2-0.8-1.5c-0.7-0.3-2.6-0.3-2.6-0.3h-9.9
		l-1.4,6.7L118.6,24.4z M99.9,30.2l6.4-30h18.4c0,0,5.1,0,7,1.5c1.5,1.2,1.9,2.3,1.8,4.6c-0.1,2.3-0.8,4.1-1.2,4.9
		c-0.4,0.9-1.1,1.7-1.7,2.3c-0.8,0.7-2,1.1-2,1.1s1.2,0.4,2,1.1c0.7,0.8,1.1,2,1.1,3.3c-0.1,1.3-0.5,3.4-0.8,4.4c-0.4,1-0.7,2-1.5,3
		c-0.8,1-2.2,2.2-4.2,2.9c-2.3,0.7-3.8,0.7-5.1,0.8c-1.3,0.1-2,0-2,0L99.9,30.2z"/>
	<path id="XMLID_43_" fill="#FFFFFF" d="M153,12.3c0,0,0.9,0,1.8-0.1c0.8-0.1,1.5-0.3,2.1-0.7c0.6-0.5,0.9-1.2,1.1-1.8
		c0.2-0.6,0.4-1.7,0.4-2.2c0-0.5-0.2-0.9-1-1.1c-0.9-0.2-2.4-0.2-2.4-0.2h-9.3l-1.3,6.1L153,12.3z M151.7,24.4c0,0,0.8,0,1.4-0.1
		c0.7-0.1,1.4-0.2,2-0.6c0.5-0.4,0.8-0.8,1.1-1.4c0.3-0.6,0.6-2.1,0.6-2.7c0-0.6-0.1-1.2-0.8-1.5c-0.7-0.3-2.6-0.3-2.6-0.3h-9.9
		l-1.4,6.7L151.7,24.4z M132.9,30.2l6.4-30h18.4c0,0,5.1,0,7,1.5c1.5,1.2,1.9,2.3,1.8,4.6c-0.1,2.3-0.8,4.1-1.2,4.9
		c-0.4,0.9-1.1,1.7-1.7,2.3c-0.8,0.7-2,1.1-2,1.1s1.2,0.4,2,1.1c0.7,0.8,1.1,2,1.1,3.3c-0.1,1.3-0.5,3.4-0.8,4.4c-0.4,1-0.7,2-1.5,3
		c-0.8,1-2.1,2.2-4.2,2.9c-2.3,0.7-3.8,0.7-5.1,0.8c-1.3,0.1-2,0-2,0L132.9,30.2z"/>
	<polyline id="XMLID_42_" fill="#FFFFFF" points="165.6,30.2 171.9,0.3 196.9,0.3 195.6,6.2 178.5,6.2 177.2,12.2 193.4,12.2 
		192.3,17.9 176,17.9 174.6,24.4 191.8,24.4 190.6,30.2 165.6,30.2 	"/>
	<path id="XMLID_37_" fill="#FFFFFF" d="M227.6,27v0.7h0.3c0.2,0,0.3,0,0.4-0.1c0.1-0.1,0.1-0.1,0.1-0.3c0-0.1,0-0.2-0.1-0.3
		c-0.1-0.1-0.2-0.1-0.4-0.1 M226.9,26.5h1.1c0.4,0,0.7,0.1,0.9,0.2c0.2,0.1,0.3,0.3,0.3,0.6c0,0.2-0.1,0.3-0.2,0.5
		c-0.1,0.1-0.2,0.2-0.4,0.3l0.6,1.2h-0.8l-0.5-1.1h-0.2v1.1h-0.7V26.5z M227.9,25.9c-0.3,0-0.5,0-0.8,0.1c-0.2,0.1-0.5,0.2-0.6,0.4
		c-0.2,0.2-0.4,0.4-0.5,0.7c-0.1,0.2-0.2,0.5-0.2,0.8c0,0.3,0,0.5,0.1,0.7c0.1,0.2,0.2,0.5,0.4,0.6c0.2,0.2,0.4,0.3,0.7,0.5
		c0.2,0.1,0.5,0.2,0.8,0.2c0.3,0,0.5,0,0.8-0.1c0.2-0.1,0.5-0.2,0.7-0.4c0.2-0.2,0.3-0.4,0.4-0.6c0.1-0.2,0.2-0.5,0.2-0.8
		c0-0.3,0-0.5-0.1-0.8c-0.1-0.2-0.2-0.5-0.4-0.6c-0.2-0.2-0.4-0.3-0.7-0.5C228.5,25.9,228.2,25.9,227.9,25.9 M227.9,25.4
		c0.3,0,0.7,0.1,1,0.2c0.3,0.1,0.6,0.3,0.8,0.5c0.2,0.2,0.4,0.5,0.5,0.8c0.1,0.3,0.2,0.6,0.2,0.9c0,0.3-0.1,0.7-0.2,1
		c-0.1,0.3-0.3,0.6-0.5,0.8c-0.2,0.2-0.5,0.4-0.8,0.5c-0.3,0.1-0.6,0.2-0.9,0.2c-0.3,0-0.6-0.1-0.9-0.2c-0.3-0.1-0.6-0.3-0.8-0.6
		c-0.2-0.2-0.4-0.5-0.5-0.8c-0.1-0.3-0.2-0.6-0.2-0.9c0-0.3,0.1-0.7,0.2-1c0.1-0.3,0.3-0.6,0.6-0.8c0.2-0.2,0.5-0.4,0.8-0.5
		C227.3,25.5,227.6,25.4,227.9,25.4"/>
	<path id="XMLID_36_" fill="#FFFFFF" d="M10,34.3v3.5c-0.4-0.5-0.9-0.9-1.3-1.1c-0.4-0.2-0.9-0.3-1.4-0.3c-0.9,0-1.7,0.3-2.2,0.9
		c-0.6,0.6-0.9,1.5-0.9,2.5c0,0.9,0.3,1.7,0.9,2.4c0.6,0.6,1.3,0.9,2.2,0.9c0.5,0,1-0.1,1.4-0.3c0.4-0.2,0.9-0.6,1.3-1.1v3.5
		c-0.5,0.2-1,0.4-1.5,0.6C8,45.9,7.5,46,7,46c-0.6,0-1.2-0.1-1.8-0.2c-0.5-0.2-1-0.4-1.5-0.7c-0.9-0.6-1.6-1.3-2-2.2
		c-0.5-0.9-0.7-1.9-0.7-3c0-0.9,0.1-1.7,0.4-2.5c0.3-0.7,0.7-1.4,1.3-2c0.6-0.6,1.2-1,1.9-1.3c0.7-0.3,1.5-0.4,2.3-0.4
		c0.5,0,1,0.1,1.5,0.2C9,33.9,9.5,34.1,10,34.3z"/>
	<path id="XMLID_33_" fill="#FFFFFF" d="M17.7,43.3c0.9,0,1.6-0.3,2.2-1c0.6-0.7,0.9-1.5,0.9-2.5c0-1-0.3-1.8-0.9-2.5
		c-0.6-0.7-1.3-1-2.2-1c-0.9,0-1.6,0.3-2.2,1c-0.6,0.7-0.9,1.5-0.9,2.5c0,1,0.3,1.8,0.9,2.5C16,42.9,16.7,43.3,17.7,43.3 M24,39.8
		c0,0.9-0.2,1.6-0.5,2.4c-0.3,0.7-0.8,1.4-1.4,2c-0.6,0.6-1.3,1-2.1,1.3c-0.8,0.3-1.6,0.5-2.4,0.5c-0.8,0-1.7-0.2-2.4-0.5
		c-0.8-0.3-1.5-0.8-2-1.3c-0.6-0.6-1.1-1.3-1.4-2c-0.3-0.7-0.5-1.5-0.5-2.4c0-0.8,0.2-1.6,0.5-2.4c0.3-0.7,0.8-1.4,1.4-2
		c0.6-0.6,1.3-1,2-1.3c0.8-0.3,1.6-0.5,2.4-0.5c0.8,0,1.6,0.2,2.4,0.5c0.8,0.3,1.5,0.8,2.1,1.3c0.6,0.6,1,1.2,1.4,2
		C23.8,38.2,24,39,24,39.8"/>
	<path id="XMLID_32_" fill="#FFFFFF" d="M26,45.7V33.9h3.1l4.5,6.1c0.1,0.1,0.2,0.4,0.4,0.7c0.2,0.4,0.4,0.8,0.7,1.3
		c-0.1-0.5-0.1-0.9-0.1-1.3c0-0.4,0-0.7,0-1v-5.8h3.1v11.8h-3.1L30,39.6c-0.1-0.1-0.2-0.4-0.4-0.7c-0.2-0.4-0.4-0.8-0.6-1.3
		c0.1,0.5,0.1,0.9,0.1,1.3c0,0.4,0,0.7,0,1v5.8H26z"/>
	<path id="XMLID_31_" fill="#FFFFFF" d="M39.2,44.3c0.6,0.6,1.3,1,2,1.3c0.7,0.3,1.4,0.4,2.2,0.4c1.4,0,2.5-0.4,3.3-1.1
		c0.8-0.8,1.2-1.8,1.2-3c0-0.5-0.1-0.9-0.2-1.4c-0.1-0.4-0.4-0.8-0.6-1c-0.4-0.4-1.3-0.8-2.6-1.2l-0.1,0c-0.6-0.2-1-0.3-1.2-0.5
		c-0.2-0.2-0.3-0.4-0.3-0.7c0-0.3,0.1-0.5,0.4-0.7c0.2-0.2,0.6-0.3,0.9-0.3c0.4,0,0.8,0.1,1.1,0.2c0.4,0.2,0.8,0.4,1.1,0.7l1-2.3
		c-0.5-0.4-1.1-0.6-1.7-0.8c-0.6-0.2-1.2-0.3-1.9-0.3c-1.2,0-2.2,0.4-2.9,1.1c-0.8,0.7-1.1,1.6-1.1,2.8c0,0.9,0.2,1.6,0.7,2.1
		c0.5,0.5,1.3,0.9,2.5,1.2c0.8,0.2,1.4,0.4,1.6,0.7c0.2,0.2,0.4,0.5,0.4,0.9c0,0.4-0.1,0.7-0.4,0.9c-0.3,0.2-0.6,0.3-1.1,0.3
		c-0.5,0-0.9-0.1-1.4-0.4c-0.5-0.3-0.9-0.7-1.4-1.2L39.2,44.3z"/>
	<polygon id="XMLID_30_" fill="#FFFFFF" points="51.4,45.7 51.4,36.7 48.8,36.7 48.8,33.9 57.3,33.9 57.3,36.7 54.6,36.7 54.6,45.7 
			"/>
	<path id="XMLID_27_" fill="#FFFFFF" d="M61.9,39.5h0.6c0.7,0,1.2-0.1,1.5-0.4c0.3-0.2,0.5-0.6,0.5-1.1c0-0.6-0.2-1-0.4-1.3
		c-0.3-0.3-0.8-0.4-1.5-0.4h-0.6V39.5z M58.9,45.7V33.9h3.4c1.3,0,2.2,0.1,2.8,0.2c0.5,0.1,1,0.3,1.3,0.6c0.4,0.3,0.8,0.7,1,1.2
		c0.2,0.5,0.3,1.1,0.3,1.7c0,0.9-0.2,1.7-0.7,2.2c-0.5,0.6-1.1,1-2,1.1l3.2,4.8h-3.6l-2.7-4.6v4.6H58.9z"/>
	<path id="XMLID_26_" fill="#FFFFFF" d="M69.4,38.9v1.2c0,1.3,0.1,2.3,0.2,2.9c0.2,0.6,0.4,1.1,0.8,1.6c0.4,0.5,1,0.8,1.7,1.1
		c0.7,0.2,1.6,0.4,2.6,0.4c1,0,1.9-0.1,2.6-0.4c0.7-0.2,1.3-0.6,1.7-1.1c0.4-0.4,0.6-1,0.8-1.6c0.2-0.6,0.2-1.6,0.2-2.9v-6.2h-3.2
		v5.7c0,0.8,0,1.5-0.1,1.8c0,0.4-0.1,0.7-0.2,0.9c-0.1,0.3-0.3,0.5-0.7,0.7c-0.3,0.2-0.7,0.2-1.1,0.2c-0.4,0-0.8-0.1-1.1-0.2
		c-0.3-0.2-0.5-0.4-0.6-0.7c-0.1-0.2-0.2-0.6-0.2-0.9c0-0.4-0.1-1-0.1-1.8v-5.7h-3.2V38.9z"/>
	<path id="XMLID_25_" fill="#FFFFFF" d="M90.9,34.3v3.5c-0.4-0.5-0.9-0.9-1.3-1.1c-0.4-0.2-0.9-0.3-1.4-0.3c-0.9,0-1.7,0.3-2.2,0.9
		c-0.6,0.6-0.9,1.5-0.9,2.5c0,0.9,0.3,1.7,0.9,2.4c0.6,0.6,1.3,0.9,2.2,0.9c0.5,0,1-0.1,1.4-0.3c0.4-0.2,0.9-0.6,1.3-1.1v3.5
		c-0.5,0.2-1,0.4-1.5,0.6c-0.5,0.1-1,0.2-1.5,0.2c-0.6,0-1.2-0.1-1.8-0.2c-0.5-0.2-1-0.4-1.5-0.7c-0.9-0.6-1.6-1.3-2-2.2
		c-0.5-0.9-0.7-1.9-0.7-3c0-0.9,0.1-1.7,0.4-2.5c0.3-0.7,0.7-1.4,1.3-2c0.6-0.6,1.2-1,1.9-1.3c0.7-0.3,1.5-0.4,2.3-0.4
		c0.5,0,1,0.1,1.5,0.2C89.9,33.9,90.4,34.1,90.9,34.3z"/>
	<polygon id="XMLID_24_" fill="#FFFFFF" points="94.4,45.7 94.4,36.7 91.8,36.7 91.8,33.9 100.3,33.9 100.3,36.7 97.7,36.7 
		97.7,45.7 	"/>
	<rect id="XMLID_23_" x="102" y="33.9" fill="#FFFFFF" width="3.3" height="11.8"/>
	<path id="XMLID_20_" fill="#FFFFFF" d="M113.7,43.3c0.9,0,1.6-0.3,2.2-1s0.9-1.5,0.9-2.5c0-1-0.3-1.8-0.9-2.5c-0.6-0.7-1.3-1-2.2-1
		c-0.9,0-1.6,0.3-2.2,1c-0.6,0.7-0.9,1.5-0.9,2.5c0,1,0.3,1.8,0.9,2.5C112,42.9,112.7,43.3,113.7,43.3 M120,39.8
		c0,0.9-0.2,1.6-0.5,2.4c-0.3,0.7-0.8,1.4-1.4,2c-0.6,0.6-1.3,1-2.1,1.3c-0.8,0.3-1.6,0.5-2.4,0.5c-0.8,0-1.7-0.2-2.4-0.5
		c-0.8-0.3-1.5-0.8-2-1.3c-0.6-0.6-1.1-1.3-1.4-2c-0.3-0.7-0.5-1.5-0.5-2.4c0-0.8,0.2-1.6,0.5-2.4c0.3-0.7,0.8-1.4,1.4-2
		c0.6-0.6,1.3-1,2-1.3c0.8-0.3,1.6-0.5,2.4-0.5c0.8,0,1.6,0.2,2.4,0.5c0.8,0.3,1.5,0.8,2.1,1.3c0.6,0.6,1,1.2,1.4,2
		C119.8,38.2,120,39,120,39.8"/>
	<path id="XMLID_19_" fill="#FFFFFF" d="M122,45.7V33.9h3.1l4.5,6.1c0.1,0.1,0.2,0.4,0.4,0.7c0.2,0.4,0.4,0.8,0.7,1.3
		c-0.1-0.5-0.1-0.9-0.1-1.3c0-0.4,0-0.7,0-1v-5.8h3.1v11.8h-3.1l-4.5-6.1c-0.1-0.1-0.2-0.4-0.4-0.7c-0.2-0.4-0.4-0.8-0.6-1.3
		c0.1,0.5,0.1,0.9,0.1,1.3c0,0.4,0,0.7,0,1v5.8H122z"/>
	<path id="XMLID_16_" fill="#FFFFFF" d="M144.3,39.2h0.6c0.8,0,1.3-0.1,1.6-0.3c0.3-0.2,0.5-0.6,0.5-1.1c0-0.5-0.2-0.8-0.5-1.1
		c-0.3-0.2-0.8-0.3-1.6-0.3h-0.6V39.2z M144.3,45.7h-3V33.9h3.4c1.3,0,2.2,0.1,2.8,0.2c0.5,0.1,1,0.3,1.4,0.7c0.4,0.4,0.8,0.8,1,1.4
		c0.2,0.5,0.3,1.1,0.3,1.8c0,0.7-0.1,1.3-0.3,1.9c-0.2,0.5-0.6,1-1,1.3c-0.3,0.3-0.7,0.4-1.2,0.6c-0.5,0.1-1.2,0.2-2.2,0.2h-1.1
		V45.7z"/>
	<path id="XMLID_13_" fill="#FFFFFF" d="M154.8,39.5h0.6c0.7,0,1.2-0.1,1.5-0.4c0.3-0.2,0.5-0.6,0.5-1.1c0-0.6-0.2-1-0.4-1.3
		c-0.3-0.3-0.8-0.4-1.5-0.4h-0.6V39.5z M151.7,45.7V33.9h3.4c1.3,0,2.2,0.1,2.8,0.2c0.5,0.1,1,0.3,1.3,0.6c0.4,0.3,0.8,0.7,1,1.2
		c0.2,0.5,0.3,1.1,0.3,1.7c0,0.9-0.2,1.7-0.7,2.2c-0.5,0.6-1.1,1-2,1.1l3.2,4.8h-3.6l-2.7-4.6v4.6H151.7z"/>
	<path id="XMLID_10_" fill="#FFFFFF" d="M168.2,43.3c0.9,0,1.6-0.3,2.2-1c0.6-0.7,0.9-1.5,0.9-2.5c0-1-0.3-1.8-0.9-2.5
		c-0.6-0.7-1.3-1-2.2-1c-0.9,0-1.6,0.3-2.2,1c-0.6,0.7-0.9,1.5-0.9,2.5c0,1,0.3,1.8,0.9,2.5C166.5,42.9,167.3,43.3,168.2,43.3
		 M174.5,39.8c0,0.9-0.2,1.6-0.5,2.4c-0.3,0.7-0.8,1.4-1.4,2c-0.6,0.6-1.3,1-2.1,1.3c-0.8,0.3-1.6,0.5-2.4,0.5
		c-0.8,0-1.7-0.2-2.4-0.5c-0.8-0.3-1.5-0.8-2-1.3c-0.6-0.6-1.1-1.3-1.4-2c-0.3-0.7-0.5-1.5-0.5-2.4c0-0.8,0.2-1.6,0.5-2.4
		c0.3-0.7,0.8-1.4,1.4-2c0.6-0.6,1.3-1,2-1.3c0.8-0.3,1.6-0.5,2.4-0.5c0.8,0,1.6,0.2,2.4,0.5c0.8,0.3,1.5,0.8,2.1,1.3
		c0.6,0.6,1,1.2,1.4,2C174.3,38.2,174.5,39,174.5,39.8"/>
	<path id="XMLID_7_" fill="#FFFFFF" d="M179.7,43h0.5c1.3,0,2.2-0.3,2.8-0.8c0.6-0.5,0.9-1.3,0.9-2.5c0-1.1-0.3-2-0.9-2.5
		c-0.6-0.5-1.5-0.8-2.8-0.8h-0.5V43z M176.5,45.7V33.9h2.5c1.8,0,3.1,0.1,3.9,0.3c0.8,0.2,1.4,0.5,2,0.9c0.7,0.5,1.3,1.2,1.7,2
		c0.4,0.8,0.6,1.7,0.6,2.8c0,1-0.2,2-0.6,2.8c-0.4,0.8-1,1.5-1.7,2c-0.6,0.4-1.2,0.7-2,0.9c-0.7,0.2-1.9,0.3-3.4,0.3H179H176.5z"/>
	<path id="XMLID_6_" fill="#FFFFFF" d="M189.1,38.9v1.2c0,1.3,0.1,2.3,0.2,2.9c0.2,0.6,0.4,1.1,0.8,1.6c0.4,0.5,1,0.8,1.7,1.1
		c0.7,0.2,1.6,0.4,2.6,0.4c1,0,1.9-0.1,2.6-0.4c0.7-0.2,1.3-0.6,1.7-1.1c0.4-0.4,0.6-1,0.8-1.6c0.2-0.6,0.2-1.6,0.2-2.9v-6.2h-3.2
		v5.7c0,0.8,0,1.5-0.1,1.8c0,0.4-0.1,0.7-0.2,0.9c-0.1,0.3-0.3,0.5-0.7,0.7c-0.3,0.2-0.7,0.2-1.1,0.2c-0.4,0-0.8-0.1-1.1-0.2
		c-0.3-0.2-0.5-0.4-0.6-0.7c-0.1-0.2-0.2-0.6-0.2-0.9c0-0.4-0.1-1-0.1-1.8v-5.7h-3.2V38.9z"/>
	<path id="XMLID_5_" fill="#FFFFFF" d="M210.6,34.3v3.5c-0.4-0.5-0.9-0.9-1.3-1.1c-0.4-0.2-0.9-0.3-1.4-0.3c-0.9,0-1.7,0.3-2.2,0.9
		c-0.6,0.6-0.9,1.5-0.9,2.5c0,0.9,0.3,1.7,0.9,2.4c0.6,0.6,1.3,0.9,2.2,0.9c0.5,0,1-0.1,1.4-0.3c0.4-0.2,0.9-0.6,1.3-1.1v3.5
		c-0.5,0.2-1,0.4-1.5,0.6c-0.5,0.1-1,0.2-1.5,0.2c-0.6,0-1.2-0.1-1.8-0.2c-0.5-0.2-1-0.4-1.5-0.7c-0.9-0.6-1.6-1.3-2-2.2
		c-0.5-0.9-0.7-1.9-0.7-3c0-0.9,0.1-1.7,0.4-2.5c0.3-0.7,0.7-1.4,1.3-2c0.6-0.6,1.2-1,1.9-1.3c0.7-0.3,1.5-0.4,2.3-0.4
		c0.5,0,1,0.1,1.5,0.2C209.6,33.9,210.1,34.1,210.6,34.3z"/>
	<polygon id="XMLID_4_" fill="#FFFFFF" points="214.2,45.7 214.2,36.7 211.5,36.7 211.5,33.9 220,33.9 220,36.7 217.4,36.7 
		217.4,45.7 	"/>
	<path id="XMLID_3_" fill="#FFFFFF" d="M220.7,44.3c0.6,0.6,1.3,1,2,1.3c0.7,0.3,1.4,0.4,2.2,0.4c1.4,0,2.5-0.4,3.3-1.1
		c0.8-0.8,1.2-1.8,1.2-3c0-0.5-0.1-0.9-0.2-1.4c-0.1-0.4-0.4-0.8-0.6-1c-0.4-0.4-1.3-0.8-2.6-1.2l-0.1,0c-0.6-0.2-1-0.3-1.2-0.5
		c-0.2-0.2-0.3-0.4-0.3-0.7c0-0.3,0.1-0.5,0.4-0.7c0.2-0.2,0.6-0.3,0.9-0.3c0.4,0,0.8,0.1,1.1,0.2c0.4,0.2,0.8,0.4,1.1,0.7l1-2.3
		c-0.5-0.4-1.1-0.6-1.7-0.8c-0.6-0.2-1.2-0.3-1.9-0.3c-1.2,0-2.2,0.4-2.9,1.1c-0.8,0.7-1.1,1.6-1.1,2.8c0,0.9,0.2,1.6,0.7,2.1
		c0.5,0.5,1.3,0.9,2.5,1.2c0.8,0.2,1.4,0.4,1.6,0.7c0.2,0.2,0.4,0.5,0.4,0.9c0,0.4-0.1,0.7-0.4,0.9c-0.3,0.2-0.6,0.3-1.1,0.3
		c-0.5,0-0.9-0.1-1.4-0.4c-0.5-0.3-0.9-0.7-1.4-1.2L220.7,44.3z"/>
</g>
</svg>
