<?xml version="1.0" encoding="utf-8"?>
<!-- Generator: Adobe Illustrator 19.0.0, SVG Export Plug-In . SVG Version: 6.00 Build 0)  -->
<svg version="1.1" id="Layer_1" xmlns="http://www.w3.org/2000/svg" xmlns:xlink="http://www.w3.org/1999/xlink" x="0px" y="0px"
	 width="275px" height="64px" viewBox="0 0 275 64" enable-background="new 0 0 275 64" xml:space="preserve">
<g id="XMLID_28_">
	<g id="XMLID_69_">
		<path id="XMLID_27_" fill="#FFFFFF" d="M4.4,0.5c0,6.5,5.6,20.4,19.4,20.4c4.7,0,28.2,0,57.5,0c57.7,0,137.8,0.1,141.5,0.1
			c5.5,0,49.9,9.8,49.9,9.8s-42.9,10.4-50,10.4c-7.1,0-190.7,0.4-199.3,0.4s-19,7.5-19,20.9"/>
		<path id="XMLID_68_" fill="#221F1F" d="M4.4,63c-0.3,0-0.5-0.2-0.5-0.5c0-13.2,10.1-21.4,19.5-21.4c4.5,0,56.6-0.1,106.9-0.2
			c45.8-0.1,89-0.2,92.4-0.2c6.1,0,39-7.8,47.8-9.9c-8.9-1.9-43-9.3-47.7-9.3c-2.1,0-28.7,0-61.8,0l-79.7-0.1c-29.3,0-52.8,0-57.5,0
			C10,21.4,3.9,7.6,3.9,0.5C3.9,0.2,4.2,0,4.4,0s0.5,0.2,0.5,0.5c0,6.7,5.7,19.9,18.9,19.9c4.7,0,28.2,0,57.5,0l79.7,0.1
			c33.1,0,59.7,0,61.8,0c5.5,0,48.2,9.4,50,9.8c0.2,0.1,0.4,0.3,0.4,0.5c0,0.2-0.2,0.4-0.4,0.5c-1.8,0.4-43,10.4-50.1,10.4
			c-3.4,0-46.6,0.1-92.4,0.2C80,42.1,28,42.1,23.5,42.1c-8.9,0-18.5,7.8-18.5,20.4C4.9,62.8,4.7,63,4.4,63z"/>
	</g>
	<g id="XMLID_67_">
		<rect id="XMLID_26_" x="0.5" y="0.5" fill="#FFFFFF" width="3.9" height="62"/>
		<path id="XMLID_64_" fill="#221F1F" d="M4.4,63H0.5C0.2,63,0,62.8,0,62.5v-62C0,0.2,0.2,0,0.5,0h3.9c0.3,0,0.5,0.2,0.5,0.5v62
			C4.9,62.8,4.7,63,4.4,63z M1,62h2.9V1H1V62z"/>
	</g>
	<g id="XMLID_24_">
		<g id="XMLID_63_">
			<polygon id="XMLID_23_" fill="#FFFFFF" points="86.3,11.9 101.7,41.5 96.5,50.1 81.4,21 			"/>
			<path id="XMLID_25_" fill="#221F1F" d="M96.5,50.6C96.5,50.6,96.4,50.6,96.5,50.6c-0.2,0-0.4-0.1-0.4-0.3L80.9,21.2
				c-0.1-0.1-0.1-0.3,0-0.5l4.9-9.1c0.1-0.2,0.2-0.3,0.4-0.3c0.2,0,0.4,0.1,0.4,0.3l15.4,29.6c0.1,0.2,0.1,0.3,0,0.5l-5.2,8.6
				C96.8,50.5,96.6,50.6,96.5,50.6z M81.9,21l14.5,28.1l4.6-7.6L86.3,13L81.9,21z"/>
		</g>
		<path id="XMLID_60_" fill="#221F1F" d="M96.5,50.6c-0.2,0-0.4-0.1-0.5-0.4L85.8,12c-0.1-0.3,0.1-0.5,0.4-0.6
			c0.3-0.1,0.5,0.1,0.6,0.4L96.9,50c0.1,0.3-0.1,0.5-0.4,0.6C96.5,50.6,96.5,50.6,96.5,50.6z"/>
	</g>
	<g id="XMLID_21_">
		<g id="XMLID_59_">
			<polygon id="XMLID_20_" fill="#FFFFFF" points="112.8,11.9 128.2,41.5 122.9,50.1 107.9,21 			"/>
			<path id="XMLID_22_" fill="#221F1F" d="M123,50.6C122.9,50.6,122.9,50.6,123,50.6c-0.2,0-0.4-0.1-0.4-0.3l-15.1-29.1
				c-0.1-0.1-0.1-0.3,0-0.5l4.9-9.1c0.1-0.2,0.3-0.3,0.4-0.3c0,0,0,0,0,0c0.2,0,0.4,0.1,0.4,0.3l15.4,29.6c0.1,0.2,0.1,0.3,0,0.5
				l-5.2,8.6C123.3,50.5,123.1,50.6,123,50.6z M108.4,21L123,49.1l4.6-7.6L112.8,13L108.4,21z"/>
		</g>
		<path id="XMLID_56_" fill="#221F1F" d="M122.9,50.6c-0.2,0-0.4-0.1-0.5-0.4L112.3,12c-0.1-0.3,0.1-0.5,0.4-0.6
			c0.3-0.1,0.5,0.1,0.6,0.4L123.4,50c0.1,0.3-0.1,0.5-0.4,0.6C123,50.6,123,50.6,122.9,50.6z"/>
	</g>
	<g id="XMLID_18_">
		<g id="XMLID_55_">
			<polygon id="XMLID_17_" fill="#FFFFFF" points="138.6,11.9 154,41.5 148.7,50.1 133.7,21 			"/>
			<path id="XMLID_19_" fill="#221F1F" d="M148.7,50.6C148.7,50.6,148.7,50.6,148.7,50.6c-0.2,0-0.4-0.1-0.4-0.3l-15.1-29.1
				c-0.1-0.1-0.1-0.3,0-0.5l4.9-9.1c0.1-0.2,0.2-0.3,0.4-0.3c0.2,0,0.4,0.1,0.4,0.3l15.4,29.6c0.1,0.2,0.1,0.3,0,0.5l-5.2,8.6
				C149.1,50.5,148.9,50.6,148.7,50.6z M134.2,21l14.5,28.1l4.6-7.6L138.6,13L134.2,21z"/>
		</g>
		<path id="XMLID_52_" fill="#221F1F" d="M148.7,50.6c-0.2,0-0.4-0.1-0.5-0.4L138.1,12c-0.1-0.3,0.1-0.5,0.4-0.6
			c0.3-0.1,0.5,0.1,0.6,0.4L149.2,50c0.1,0.3-0.1,0.5-0.4,0.6C148.8,50.6,148.8,50.6,148.7,50.6z"/>
	</g>
	<g id="XMLID_15_">
		<g id="XMLID_51_">
			<polygon id="XMLID_14_" fill="#FFFFFF" points="164.9,11.9 180.3,41.5 175.1,50.1 160,21 			"/>
			<path id="XMLID_16_" fill="#221F1F" d="M175.1,50.6C175.1,50.6,175.1,50.6,175.1,50.6c-0.2,0-0.4-0.1-0.4-0.3l-15.1-29.1
				c-0.1-0.1-0.1-0.3,0-0.5l4.9-9.1c0.1-0.2,0.3-0.3,0.4-0.3c0.2,0,0.4,0.1,0.4,0.3l15.4,29.6c0.1,0.2,0.1,0.3,0,0.5l-5.2,8.6
				C175.4,50.5,175.3,50.6,175.1,50.6z M160.6,21l14.5,28.1l4.6-7.6L164.9,13L160.6,21z"/>
		</g>
		<path id="XMLID_48_" fill="#221F1F" d="M175.1,50.6c-0.2,0-0.4-0.1-0.5-0.4L164.5,12c-0.1-0.3,0.1-0.5,0.4-0.6
			c0.3-0.1,0.5,0.1,0.6,0.4L175.6,50c0.1,0.3-0.1,0.5-0.4,0.6C175.2,50.6,175.1,50.6,175.1,50.6z"/>
	</g>
	<g id="XMLID_12_">
		<g id="XMLID_47_">
			<polygon id="XMLID_11_" fill="#FFFFFF" points="191.6,11.9 206.9,41.5 201.7,50.1 186.6,21 			"/>
			<path id="XMLID_13_" fill="#221F1F" d="M201.7,50.6C201.7,50.6,201.7,50.6,201.7,50.6c-0.2,0-0.4-0.1-0.4-0.3l-15.1-29.1
				c-0.1-0.1-0.1-0.3,0-0.5l4.9-9.1c0.1-0.2,0.3-0.3,0.4-0.3c0.2,0,0.4,0.1,0.4,0.3l15.4,29.6c0.1,0.2,0.1,0.3,0,0.5l-5.2,8.6
				C202.1,50.5,201.9,50.6,201.7,50.6z M187.2,21l14.5,28.1l4.6-7.6L191.6,13L187.2,21z"/>
		</g>
		<path id="XMLID_44_" fill="#221F1F" d="M201.7,50.6c-0.2,0-0.4-0.1-0.5-0.4L191.1,12c-0.1-0.3,0.1-0.5,0.4-0.6
			c0.3-0.1,0.5,0.1,0.6,0.4L202.2,50c0.1,0.3-0.1,0.5-0.4,0.6C201.8,50.6,201.8,50.6,201.7,50.6z"/>
	</g>
	<g id="XMLID_9_">
		<g id="XMLID_43_">
			<polygon id="XMLID_8_" fill="#FFFFFF" points="218.3,12.6 231.7,40.2 227.8,50.1 213.1,21.1 			"/>
			<path id="XMLID_10_" fill="#221F1F" d="M227.8,50.6c-0.2,0-0.4-0.1-0.4-0.3l-14.7-29c-0.1-0.2-0.1-0.3,0-0.5l5.2-8.4
				c0.1-0.2,0.3-0.2,0.5-0.2c0.2,0,0.3,0.1,0.4,0.3L232.2,40c0.1,0.1,0.1,0.3,0,0.4l-3.9,9.9C228.2,50.5,228,50.6,227.8,50.6
				C227.8,50.6,227.8,50.6,227.8,50.6z M213.7,21.1l14,27.8l3.5-8.6l-12.9-26.6L213.7,21.1z"/>
		</g>
		<path id="XMLID_40_" fill="#221F1F" d="M227.8,50.6c-0.2,0-0.4-0.2-0.5-0.4l-9.4-37.5c-0.1-0.3,0.1-0.5,0.4-0.6
			c0.3-0.1,0.5,0.1,0.6,0.4l9.4,37.5c0.1,0.3-0.1,0.5-0.4,0.6C227.9,50.6,227.8,50.6,227.8,50.6z"/>
	</g>
	<g id="XMLID_39_">
		<polygon id="XMLID_6_" fill="#FFFFFF" points="238.7,23.7 242.8,19.9 252.5,35.6 248.7,41.6 		"/>
		<path id="XMLID_7_" fill="#221F1F" d="M248.7,42.1C248.7,42.1,248.7,42.1,248.7,42.1c-0.2,0-0.3-0.1-0.4-0.3l-10.1-17.9
			c-0.1-0.2-0.1-0.5,0.1-0.6l4.2-3.8c0.1-0.1,0.3-0.1,0.4-0.1c0.1,0,0.3,0.1,0.4,0.2l9.7,15.7c0.1,0.2,0.1,0.4,0,0.5l-3.7,6
			C249.1,42,248.9,42.1,248.7,42.1z M239.3,23.8l9.5,16.8l3.1-5l-9.2-14.9L239.3,23.8z"/>
	</g>
	<path id="XMLID_36_" fill="#221F1F" d="M248.7,42.1c-0.2,0-0.4-0.1-0.5-0.4l-5.9-21.7c-0.1-0.3,0.1-0.5,0.4-0.6
		c0.3-0.1,0.5,0.1,0.6,0.4l5.9,21.7c0.1,0.3-0.1,0.5-0.4,0.6C248.8,42.1,248.8,42.1,248.7,42.1z"/>
	<g id="XMLID_35_">
		<polygon id="XMLID_4_" fill="#FFFFFF" points="260.8,28.3 263.7,24.7 268.6,30 265,32.7 		"/>
		<path id="XMLID_5_" fill="#221F1F" d="M265,33.2c-0.1,0-0.3-0.1-0.4-0.2l-4.3-4.5c-0.2-0.2-0.2-0.5,0-0.7l2.9-3.5
			c0.1-0.1,0.2-0.2,0.4-0.2c0.2,0,0.3,0.1,0.4,0.2l4.8,5.2c0.1,0.1,0.1,0.2,0.1,0.4c0,0.1-0.1,0.3-0.2,0.4l-3.5,2.8
			C265.3,33.2,265.2,33.2,265,33.2z M261.4,28.3l3.7,3.8l2.7-2.2l-4.1-4.4L261.4,28.3z"/>
	</g>
	<path id="XMLID_32_" fill="#221F1F" d="M265,33.2c-0.2,0-0.5-0.2-0.5-0.4l-1.3-8c0-0.3,0.1-0.5,0.4-0.6c0.3,0,0.5,0.1,0.6,0.4
		l1.3,8C265.6,32.9,265.4,33.2,265,33.2C265.1,33.2,265.1,33.2,265,33.2z"/>
	<g id="XMLID_31_">
		<polygon id="XMLID_1_" fill="#FFFFFF" points="65.7,23.5 65.7,41.6 69.8,50.1 74.8,41.6 		"/>
		<path id="XMLID_3_" fill="#221F1F" d="M69.8,50.6C69.8,50.6,69.8,50.6,69.8,50.6c-0.2,0-0.4-0.1-0.5-0.3l-4.1-8.5
			c0-0.1,0-0.1,0-0.2v-18c0-0.2,0.2-0.4,0.4-0.5c0.2-0.1,0.5,0.1,0.6,0.3l9.1,18c0.1,0.2,0.1,0.3,0,0.5l-5,8.5
			C70.2,50.5,70,50.6,69.8,50.6z M66.2,41.5l3.7,7.6l4.4-7.5l-8-15.9V41.5z"/>
	</g>
	<path id="XMLID_2_" fill="#221F1F" d="M69.8,50.6c-0.2,0-0.5-0.2-0.5-0.4l-4.1-26.6c0-0.3,0.1-0.5,0.4-0.6c0.3,0,0.5,0.1,0.6,0.4
		L70.3,50C70.4,50.3,70.2,50.6,69.8,50.6C69.9,50.6,69.9,50.6,69.8,50.6z"/>
</g>
</svg>
