<?xml version="1.0" standalone="no"?>
<!DOCTYPE svg PUBLIC "-//W3C//DTD SVG 20010904//EN"
 "http://www.w3.org/TR/2001/REC-SVG-20010904/DTD/svg10.dtd">
<svg version="1.0" xmlns="http://www.w3.org/2000/svg"
 width="700.000000pt" height="700.000000pt" viewBox="0 0 700.000000 700.000000"
 preserveAspectRatio="xMidYMid meet">
<metadata>
Created by potrace 1.11, written by Peter Selinger 2001-2013
</metadata>
<g transform="translate(0.000000,700.000000) scale(0.100000,-0.100000)"
fill="#000000" stroke="none">
<path d="M3285 6994 c-203 -20 -276 -28 -375 -45 -610 -105 -1195 -376 -1665
-772 -95 -81 -310 -294 -394 -392 -468 -542 -742 -1176 -833 -1925 -17 -137
-17 -583 0 -720 69 -569 227 -1028 514 -1491 145 -236 311 -440 525 -649 204
-200 371 -332 592 -468 463 -287 922 -445 1491 -514 137 -17 583 -17 720 0
569 69 1028 227 1491 514 360 222 692 528 958 882 323 430 549 960 640 1501
38 223 46 327 46 585 0 258 -8 362 -46 585 -105 627 -382 1216 -800 1700 -84
98 -299 311 -394 392 -518 437 -1148 710 -1845 798 -117 15 -536 28 -625 19z
m865 -1754 c681 -28 944 -91 1131 -268 74 -69 137 -177 159 -271 27 -114 10
-390 -35 -588 l-5 -23 -440 0 c-242 0 -440 3 -440 8 0 4 9 47 20 96 11 50 20
118 20 153 0 55 -3 66 -30 97 -82 93 -291 126 -797 126 -406 0 -563 -22 -738
-105 -104 -50 -179 -137 -228 -265 -9 -25 -80 -337 -158 -695 -159 -733 -171
-814 -129 -899 23 -49 74 -91 145 -120 127 -53 619 -82 965 -56 195 15 312 41
420 95 112 57 188 186 254 433 l25 92 -505 0 c-277 0 -504 1 -504 3 0 3 123
544 135 595 l5 22 951 0 951 0 -5 -22 c-3 -13 -47 -223 -97 -468 -50 -245
-105 -485 -121 -535 -86 -257 -238 -490 -393 -599 -207 -147 -500 -229 -991
-278 -203 -20 -956 -17 -1155 6 -329 36 -543 104 -732 230 -121 80 -207 212
-252 388 -48 187 -43 334 19 618 19 85 70 335 115 555 88 439 103 500 162 655
117 312 269 537 458 680 322 244 693 330 1510 348 36 1 175 -3 310 -8z"/>
</g>
</svg>
