<?xml version="1.0" encoding="utf-8"?>
<!-- Generator: Adobe Illustrator 19.0.0, SVG Export Plug-In . SVG Version: 6.00 Build 0)  -->
<svg version="1.1" id="Layer_1" xmlns="http://www.w3.org/2000/svg" xmlns:xlink="http://www.w3.org/1999/xlink" x="0px" y="0px"
	 width="220px" height="48px" viewBox="0 0 220 48" enable-background="new 0 0 220 48" xml:space="preserve">
<path id="XMLID_59_" fill="#FFFFFF" d="M14.7,18.4h8.4l-0.4,1.4c0,0-0.3,1-0.8,1.8s-1.1,1.2-2.5,1.6c-1.3,0.4-3.6,0.4-5.3,0.4
	c-1.3,0-3.9-0.2-4.5-0.4c-0.4-0.1-1.3-0.4-1.7-1.1c-0.4-0.8,0-2.4,0-2.4s2.1-9.8,2.3-10.6c0.3-1,0.9-1.8,1.5-2.3
	c0.6-0.4,1.7-0.8,2.6-1c0.7-0.1,2.6-0.2,4-0.2c1,0,3.5,0.1,4.3,0.2c0.7,0.1,1.9,0.2,2.5,1c0.4,0.5,0.1,1.5,0.1,1.5l-0.3,1.3h7.4
	c0,0,0.4-2,0.4-2.2c0-0.3,0.3-2.2-0.2-3.4c-0.7-1.7-1.9-2.6-4-3.3C26.2,0.1,20.7,0,19.5,0c-1.1,0-4.6,0.1-6,0.4S9.2,0.9,6.3,3.3
	s-4,7.5-4,7.5l-1.5,7.6c0,0-0.2,0.7-0.3,1.2c-0.2,1.1-0.7,3.5,0.7,6s5.5,3.2,5.9,3.3s3.8,0.6,9,0.4s9.6-1,11.7-3.4s2.6-5.5,2.6-5.5
	l1.4-7H15.9L14.7,18.4z"/>
<path id="XMLID_57_" fill="#FFFFFF" d="M51.3,14.2c0,0,0.8,0,1.6-0.2c0.9-0.2,1.5-0.5,2.2-1.2s0.9-1.6,1.1-2.5
	c0.2-0.9,0.5-3,0.5-3.1s0-0.7-0.7-1.1c-0.8-0.4-2.9-0.4-2.9-0.4H44l-1.8,8.3L51.3,14.2z M39.1,28.9h-7.5l6.1-28.6h17.3
	c0,0,3.7-0.1,6.2,1.1c2.4,1.1,2.8,3.3,2.8,3.6c0.1,0.4,0.3,1.9-0.2,3.8c-0.4,2-0.8,3.2-1.2,4.3s-1.1,1.8-1.8,2.5
	c-0.9,0.8-2.6,1.3-2.6,1.3s1.4,0.5,2,1.5c0.6,1.1,0.6,2,0.5,3.3c0,0.7-0.3,1.7-0.3,1.7L59.3,29h-7.5l1.3-6.4c0,0,0.3-1.1-0.2-1.8
	c-0.5-0.7-1.2-0.8-1.7-0.8h-0.6h-0.5h-0.9H41L39.1,28.9z"/>
<path id="XMLID_54_" fill="#FFFFFF" d="M205.4,14.2c0,0,0.8,0,1.6-0.2c0.9-0.2,1.5-0.5,2.2-1.2c0.7-0.8,0.9-1.6,1.1-2.5
	c0.2-0.9,0.5-3,0.5-3.1s0-0.7-0.7-1.1c-0.8-0.4-2.9-0.4-2.9-0.4h-9.1l-1.8,8.3L205.4,14.2z M193.3,28.9h-7.5l6.1-28.6h17.3
	c0,0,3.7-0.1,6.2,1.1c2.4,1.1,2.8,3.3,2.8,3.6c0.1,0.4,0.3,1.9-0.2,3.8c-0.4,2-0.8,3.2-1.2,4.3c-0.5,1.1-1.1,1.8-1.8,2.5
	c-0.9,0.8-2.6,1.3-2.6,1.3s1.4,0.5,2,1.5c0.6,1.1,0.6,2,0.5,3.3c0,0.7-0.3,1.7-0.3,1.7l-1.1,5.5H206l1.3-6.4c0,0,0.3-1.1-0.2-1.8
	c-0.5-0.7-1.2-0.8-1.7-0.8h-0.6h-0.5h-0.9h-8.3L193.3,28.9z"/>
<path id="XMLID_51_" fill="#FFFFFF" d="M84.2,18.6L81.9,6.3l-7.5,12.3H84.2z M60.4,28.9L78,0.3h10l5.7,28.6h-7.7l-1-5.2H71.5
	l-3.2,5.2L60.4,28.9z"/>
<path id="XMLID_47_" fill="#FFFFFF" d="M114.7,11.8c0,0,0.9,0,1.7-0.1c0.8-0.1,1.4-0.3,2-0.7c0.6-0.5,0.9-1.1,1.1-1.7
	c0.2-0.6,0.4-1.6,0.4-2.1s-0.2-0.9-1-1.1c-0.9-0.2-2.3-0.2-2.3-0.2h-8.9l-1.2,5.8h8.4 M113.3,23.3c0,0,0.8,0,1.3-0.1
	c0.7-0.1,1.3-0.2,1.9-0.6c0.5-0.4,0.8-0.8,1.1-1.3c0.2-0.6,0.6-2,0.6-2.6c0-0.6-0.1-1.1-0.8-1.4C116.8,17,115,17,115,17h-9.5
	l-1.3,6.4L113.3,23.3z M95.5,28.9l6.1-28.7h17.6c0,0,4.9,0,6.7,1.4c1.4,1.1,1.8,2.2,1.7,4.4c-0.1,2.2-0.8,3.9-1.1,4.7
	c-0.4,0.9-1.1,1.6-1.6,2.2c-0.8,0.7-1.9,1.1-1.9,1.1s1.1,0.4,1.9,1.1c0.7,0.8,1.1,1.9,1.1,3.2c-0.1,1.2-0.5,3.3-0.8,4.2
	c-0.4,1-0.7,1.9-1.4,2.9c-0.8,1-2.1,2.1-4,2.8c-2.2,0.7-3.6,0.7-4.9,0.8c-1.2,0.1-1.9,0-1.9,0L95.5,28.9z"/>
<path id="XMLID_43_" fill="#FFFFFF" d="M146.2,11.8c0,0,0.9,0,1.7-0.1c0.8-0.1,1.4-0.3,2-0.7c0.6-0.5,0.9-1.1,1.1-1.7
	c0.2-0.6,0.4-1.6,0.4-2.1s-0.2-0.9-1-1.1c-0.9-0.2-2.3-0.2-2.3-0.2h-8.9l-1.2,5.8H146.2z M145,23.3c0,0,0.8,0,1.3-0.1
	c0.7-0.1,1.3-0.2,1.9-0.6c0.5-0.4,0.8-0.8,1.1-1.3s0.6-2,0.6-2.6c0-0.6-0.1-1.1-0.8-1.4c-0.7-0.3-2.5-0.3-2.5-0.3h-9.5l-1.3,6.4
	L145,23.3z M127,28.9l6.1-28.7h17.6c0,0,4.9,0,6.7,1.4c1.4,1.1,1.8,2.2,1.7,4.4c-0.1,2.2-0.8,3.9-1.1,4.7c-0.4,0.9-1.1,1.6-1.6,2.2
	c-0.8,0.7-1.9,1.1-1.9,1.1s1.1,0.4,1.9,1.1c0.7,0.8,1.1,1.9,1.1,3.2c-0.1,1.2-0.5,3.3-0.8,4.2c-0.4,1-0.7,1.9-1.4,2.9
	c-0.8,1-2,2.1-4,2.8c-2.2,0.7-3.6,0.7-4.9,0.8c-1.2,0.1-1.9,0-1.9,0L127,28.9z"/>
<polyline id="XMLID_42_" fill="#FFFFFF" points="158.3,28.9 164.3,0.3 188.2,0.3 187,5.9 170.6,5.9 169.4,11.7 184.9,11.7 
	183.8,17.1 168.2,17.1 166.9,23.3 183.3,23.3 182.2,28.9 158.3,28.9 "/>
<path id="XMLID_36_" fill="#FFFFFF" d="M9.5,36.7v3.3c-0.4-0.5-0.9-0.9-1.2-1.1c-0.4-0.2-0.9-0.3-1.3-0.3c-0.9,0-1.6,0.3-2.1,0.9
	C4.2,40.2,3.9,41,3.9,42c0,0.9,0.3,1.6,0.9,2.3c0.6,0.6,1.2,0.9,2.1,0.9c0.5,0,1-0.1,1.3-0.3c0.4-0.2,0.9-0.6,1.2-1.1v3.3
	c-0.5,0.2-1,0.4-1.4,0.6c-0.5,0.1-1,0.2-1.4,0.2c-0.6,0-1.1-0.1-1.7-0.2c-0.5-0.2-1-0.4-1.4-0.7c-0.9-0.6-1.5-1.2-1.9-2.1
	c-0.5-0.9-0.7-1.8-0.7-2.9c0-0.9,0.1-1.6,0.4-2.4c0.3-0.7,0.7-1.3,1.2-1.9s1.1-1,1.8-1.2c0.7-0.3,1.4-0.4,2.2-0.4
	c0.5,0,1,0.1,1.4,0.2C8.5,36.3,9,36.5,9.5,36.7z"/>
<path id="XMLID_33_" fill="#FFFFFF" d="M16.8,45.3c0.9,0,1.5-0.3,2.1-1c0.6-0.7,0.9-1.4,0.9-2.4c0-1-0.3-1.7-0.9-2.4
	c-0.6-0.7-1.2-1-2.1-1c-0.9,0-1.5,0.3-2.1,1c-0.6,0.7-0.9,1.4-0.9,2.4c0,1,0.3,1.7,0.9,2.4C15.2,44.9,15.9,45.3,16.8,45.3 M22.9,42
	c0,0.9-0.2,1.5-0.5,2.3c-0.3,0.7-0.8,1.3-1.3,1.9c-0.6,0.6-1.2,1-2,1.2c-0.8,0.3-1.5,0.5-2.3,0.5c-0.8,0-1.6-0.2-2.3-0.5
	c-0.8-0.3-1.4-0.8-1.9-1.2c-0.6-0.6-1.1-1.2-1.3-1.9c-0.3-0.7-0.5-1.4-0.5-2.3c0-0.8,0.2-1.5,0.5-2.3c0.3-0.7,0.8-1.3,1.3-1.9
	c0.6-0.6,1.2-1,1.9-1.2c0.8-0.3,1.5-0.5,2.3-0.5c0.8,0,1.5,0.2,2.3,0.5c0.8,0.3,1.4,0.8,2,1.2c0.6,0.6,1,1.1,1.3,1.9
	C22.7,40.4,22.9,41.2,22.9,42"/>
<path id="XMLID_32_" fill="#FFFFFF" d="M24.8,47.6V36.3h3l4.3,5.8c0.1,0.1,0.2,0.4,0.4,0.7c0.2,0.4,0.4,0.8,0.7,1.2
	C33,43.6,33,43.2,33,42.8c0-0.4,0-0.7,0-1v-5.5h3v11.3h-3l-4.4-5.8c-0.1-0.1-0.2-0.4-0.4-0.7c-0.2-0.4-0.4-0.8-0.6-1.2
	c0.1,0.5,0.1,0.9,0.1,1.2c0,0.4,0,0.7,0,1v5.5C27.7,47.6,24.8,47.6,24.8,47.6z"/>
<path id="XMLID_31_" fill="#FFFFFF" d="M37.4,46.3c0.6,0.6,1.2,1,1.9,1.2c0.7,0.3,1.3,0.4,2.1,0.4c1.3,0,2.4-0.4,3.2-1.1
	c0.8-0.8,1.1-1.7,1.1-2.9c0-0.5-0.1-0.9-0.2-1.3c-0.1-0.4-0.4-0.8-0.6-1c-0.4-0.4-1.2-0.8-2.5-1.1h-0.1c-0.6-0.2-1-0.3-1.1-0.5
	s-0.3-0.4-0.3-0.7c0-0.3,0.1-0.5,0.4-0.7c0.2-0.2,0.6-0.3,0.9-0.3c0.4,0,0.8,0.1,1.1,0.2c0.4,0.2,0.8,0.4,1.1,0.7l1-2.2
	c-0.5-0.4-1.1-0.6-1.6-0.8C43,36.1,42.5,36,41.8,36c-1.1,0-2.1,0.4-2.8,1.1c-0.8,0.7-1.1,1.5-1.1,2.7c0,0.9,0.2,1.5,0.7,2
	c0.5,0.5,1.2,0.9,2.4,1.1c0.8,0.2,1.3,0.4,1.5,0.7c0.2,0.2,0.4,0.5,0.4,0.9s-0.1,0.7-0.4,0.9s-0.6,0.3-1.1,0.3
	c-0.5,0-0.9-0.1-1.3-0.4c-0.5-0.3-0.9-0.7-1.3-1.1L37.4,46.3z"/>
<polygon id="XMLID_30_" fill="#FFFFFF" points="49.1,47.6 49.1,39 46.6,39 46.6,36.3 54.7,36.3 54.7,39 52.1,39 52.1,47.6 "/>
<path id="XMLID_27_" fill="#FFFFFF" d="M59.1,41.7h0.6c0.7,0,1.1-0.1,1.4-0.4c0.3-0.2,0.5-0.6,0.5-1.1c0-0.6-0.2-1-0.4-1.2
	c-0.3-0.3-0.8-0.4-1.4-0.4h-0.6L59.1,41.7L59.1,41.7z M56.2,47.6V36.3h3.3c1.2,0,2.1,0.1,2.7,0.2c0.5,0.1,1,0.3,1.2,0.6
	c0.4,0.3,0.8,0.7,1,1.1c0.2,0.5,0.3,1.1,0.3,1.6c0,0.9-0.2,1.6-0.7,2.1c-0.5,0.6-1.1,1-1.9,1.1l3.1,4.6h-3.4l-2.6-4.4v4.4H56.2z"/>
<path id="XMLID_26_" fill="#FFFFFF" d="M66.3,41.1v1.1c0,1.2,0.1,2.2,0.2,2.8c0.2,0.6,0.4,1.1,0.8,1.5s1,0.8,1.6,1.1
	c0.7,0.2,1.5,0.4,2.5,0.4c1,0,1.8-0.1,2.5-0.4c0.7-0.2,1.2-0.6,1.6-1.1c0.4-0.4,0.6-1,0.8-1.5c0.2-0.6,0.2-1.5,0.2-2.8v-5.9h-3.1
	v5.5c0,0.8,0,1.4-0.1,1.7c0,0.4-0.1,0.7-0.2,0.9c-0.1,0.3-0.3,0.5-0.7,0.7c-0.3,0.2-0.7,0.2-1.1,0.2s-0.8-0.1-1.1-0.2
	c-0.3-0.2-0.5-0.4-0.6-0.7c-0.1-0.2-0.2-0.6-0.2-0.9c0-0.4-0.1-1-0.1-1.7v-5.5h-3.1L66.3,41.1L66.3,41.1z"/>
<path id="XMLID_25_" fill="#FFFFFF" d="M86.8,36.7v3.3c-0.4-0.5-0.9-0.9-1.2-1.1c-0.4-0.2-0.9-0.3-1.3-0.3c-0.9,0-1.6,0.3-2.1,0.9
	c-0.6,0.6-0.9,1.4-0.9,2.4c0,0.9,0.3,1.6,0.9,2.3c0.6,0.6,1.2,0.9,2.1,0.9c0.5,0,1-0.1,1.3-0.3s0.9-0.6,1.2-1.1v3.3
	c-0.5,0.2-1,0.4-1.4,0.6c-0.5,0.1-1,0.2-1.4,0.2c-0.6,0-1.1-0.1-1.7-0.2c-0.5-0.2-1-0.4-1.4-0.7c-0.9-0.6-1.5-1.2-1.9-2.1
	c-0.5-0.9-0.7-1.8-0.7-2.9c0-0.9,0.1-1.6,0.4-2.4c0.3-0.7,0.7-1.3,1.2-1.9c0.6-0.6,1.1-1,1.8-1.2c0.7-0.3,1.4-0.4,2.2-0.4
	c0.5,0,1,0.1,1.4,0.2C85.9,36.3,86.4,36.5,86.8,36.7z"/>
<polygon id="XMLID_24_" fill="#FFFFFF" points="90.2,47.6 90.2,39 87.7,39 87.7,36.3 95.8,36.3 95.8,39 93.3,39 93.3,47.6 "/>
<rect id="XMLID_23_" x="97.5" y="36.3" fill="#FFFFFF" width="3.2" height="11.3"/>
<path id="XMLID_20_" fill="#FFFFFF" d="M108.7,45.3c0.9,0,1.5-0.3,2.1-1c0.6-0.7,0.9-1.4,0.9-2.4c0-1-0.3-1.7-0.9-2.4
	c-0.6-0.7-1.2-1-2.1-1c-0.9,0-1.5,0.3-2.1,1c-0.6,0.7-0.9,1.4-0.9,2.4c0,1,0.3,1.7,0.9,2.4C107,44.9,107.7,45.3,108.7,45.3
	 M114.7,42c0,0.9-0.2,1.5-0.5,2.3c-0.3,0.7-0.8,1.3-1.3,1.9c-0.6,0.6-1.2,1-2,1.2c-0.8,0.3-1.5,0.5-2.3,0.5c-0.8,0-1.6-0.2-2.3-0.5
	c-0.8-0.3-1.4-0.8-1.9-1.2c-0.6-0.6-1.1-1.2-1.3-1.9c-0.3-0.7-0.5-1.4-0.5-2.3c0-0.8,0.2-1.5,0.5-2.3c0.3-0.7,0.8-1.3,1.3-1.9
	c0.6-0.6,1.2-1,1.9-1.2c0.8-0.3,1.5-0.5,2.3-0.5c0.8,0,1.5,0.2,2.3,0.5c0.8,0.3,1.4,0.8,2,1.2c0.6,0.6,1,1.1,1.3,1.9
	C114.5,40.4,114.7,41.2,114.7,42"/>
<path id="XMLID_19_" fill="#FFFFFF" d="M116.6,47.6V36.3h3l4.3,5.8c0.1,0.1,0.2,0.4,0.4,0.7c0.2,0.4,0.4,0.8,0.7,1.2
	c-0.1-0.5-0.1-0.9-0.1-1.2c0-0.4,0-0.7,0-1v-5.5h3v11.3h-3l-4.3-5.8c-0.1-0.1-0.2-0.4-0.4-0.7c-0.2-0.4-0.4-0.8-0.6-1.2
	c0.1,0.5,0.1,0.9,0.1,1.2c0,0.4,0,0.7,0,1v5.5H116.6z"/>
<path id="XMLID_16_" fill="#FFFFFF" d="M137.9,41.4h0.6c0.8,0,1.2-0.1,1.5-0.3c0.3-0.2,0.5-0.6,0.5-1.1s-0.2-0.8-0.5-1.1
	c-0.3-0.2-0.8-0.3-1.5-0.3h-0.6V41.4z M137.9,47.6H135V36.3h3.3c1.2,0,2.1,0.1,2.7,0.2c0.5,0.1,1,0.3,1.3,0.7c0.4,0.4,0.8,0.8,1,1.3
	c0.2,0.5,0.3,1.1,0.3,1.7s-0.1,1.2-0.3,1.8c-0.2,0.5-0.6,1-1,1.2c-0.3,0.3-0.7,0.4-1.1,0.6c-0.5,0.1-1.1,0.2-2.1,0.2H138L137.9,47.6
	L137.9,47.6z"/>
<path id="XMLID_13_" fill="#FFFFFF" d="M148,41.7h0.6c0.7,0,1.1-0.1,1.4-0.4c0.3-0.2,0.5-0.6,0.5-1.1c0-0.6-0.2-1-0.4-1.2
	c-0.3-0.3-0.8-0.4-1.4-0.4h-0.6L148,41.7L148,41.7z M145,47.6V36.3h3.3c1.2,0,2.1,0.1,2.7,0.2c0.5,0.1,1,0.3,1.2,0.6
	c0.4,0.3,0.8,0.7,1,1.1c0.2,0.5,0.3,1.1,0.3,1.6c0,0.9-0.2,1.6-0.7,2.1c-0.5,0.6-1.1,1-1.9,1.1l3.1,4.6h-3.4l-2.6-4.4v4.4H145z"/>
<path id="XMLID_10_" fill="#FFFFFF" d="M160.8,45.3c0.9,0,1.5-0.3,2.1-1s0.9-1.4,0.9-2.4c0-1-0.3-1.7-0.9-2.4c-0.6-0.7-1.2-1-2.1-1
	c-0.9,0-1.5,0.3-2.1,1c-0.6,0.7-0.9,1.4-0.9,2.4c0,1,0.3,1.7,0.9,2.4C159.1,44.9,159.9,45.3,160.8,45.3 M166.8,42
	c0,0.9-0.2,1.5-0.5,2.3c-0.3,0.7-0.8,1.3-1.3,1.9c-0.6,0.6-1.2,1-2,1.2c-0.8,0.3-1.5,0.5-2.3,0.5c-0.8,0-1.6-0.2-2.3-0.5
	c-0.8-0.3-1.4-0.8-1.9-1.2c-0.6-0.6-1.1-1.2-1.3-1.9c-0.3-0.7-0.5-1.4-0.5-2.3c0-0.8,0.2-1.5,0.5-2.3c0.3-0.7,0.8-1.3,1.3-1.9
	c0.6-0.6,1.2-1,1.9-1.2c0.8-0.3,1.5-0.5,2.3-0.5c0.8,0,1.5,0.2,2.3,0.5c0.8,0.3,1.4,0.8,2,1.2c0.6,0.6,1,1.1,1.3,1.9
	C166.6,40.4,166.8,41.2,166.8,42"/>
<path id="XMLID_7_" fill="#FFFFFF" d="M171.8,45h0.5c1.2,0,2.1-0.3,2.7-0.8c0.6-0.5,0.9-1.2,0.9-2.4c0-1.1-0.3-1.9-0.9-2.4
	c-0.6-0.5-1.4-0.8-2.7-0.8h-0.5V45z M168.7,47.6V36.3h2.4c1.7,0,3,0.1,3.7,0.3c0.8,0.2,1.3,0.5,1.9,0.9c0.7,0.5,1.2,1.1,1.6,1.9
	c0.4,0.8,0.6,1.6,0.6,2.7c0,1-0.2,1.9-0.6,2.7c-0.4,0.8-1,1.4-1.6,1.9c-0.6,0.4-1.1,0.7-1.9,0.9c-0.7,0.2-1.8,0.3-3.3,0.3h-0.5h-2.4
	V47.6z"/>
<path id="XMLID_6_" fill="#FFFFFF" d="M180.8,41.1v1.1c0,1.2,0.1,2.2,0.2,2.8c0.2,0.6,0.4,1.1,0.8,1.5s1,0.8,1.6,1.1
	c0.7,0.2,1.5,0.4,2.5,0.4c1,0,1.8-0.1,2.5-0.4c0.7-0.2,1.2-0.6,1.6-1.1c0.4-0.4,0.6-1,0.8-1.5c0.2-0.6,0.2-1.5,0.2-2.8v-5.9h-3.1
	v5.5c0,0.8,0,1.4-0.1,1.7c0,0.4-0.1,0.7-0.2,0.9c-0.1,0.3-0.3,0.5-0.7,0.7c-0.3,0.2-0.7,0.2-1.1,0.2s-0.8-0.1-1.1-0.2
	c-0.3-0.2-0.5-0.4-0.6-0.7c-0.1-0.2-0.2-0.6-0.2-0.9c0-0.4-0.1-1-0.1-1.7v-5.5h-3.1L180.8,41.1L180.8,41.1z"/>
<path id="XMLID_5_" fill="#FFFFFF" d="M201.3,36.7v3.3c-0.4-0.5-0.9-0.9-1.2-1.1c-0.4-0.2-0.9-0.3-1.3-0.3c-0.9,0-1.6,0.3-2.1,0.9
	c-0.6,0.6-0.9,1.4-0.9,2.4c0,0.9,0.3,1.6,0.9,2.3c0.6,0.6,1.2,0.9,2.1,0.9c0.5,0,1-0.1,1.3-0.3c0.4-0.2,0.9-0.6,1.2-1.1v3.3
	c-0.5,0.2-1,0.4-1.4,0.6c-0.5,0.1-1,0.2-1.4,0.2c-0.6,0-1.1-0.1-1.7-0.2c-0.5-0.2-1-0.4-1.4-0.7c-0.9-0.6-1.5-1.2-1.9-2.1
	c-0.5-0.9-0.7-1.8-0.7-2.9c0-0.9,0.1-1.6,0.4-2.4c0.3-0.7,0.7-1.3,1.2-1.9s1.1-1,1.8-1.2c0.7-0.3,1.4-0.4,2.2-0.4
	c0.5,0,1,0.1,1.4,0.2C200.4,36.3,200.8,36.5,201.3,36.7z"/>
<polygon id="XMLID_4_" fill="#FFFFFF" points="204.8,47.6 204.8,39 202.2,39 202.2,36.3 210.3,36.3 210.3,39 207.8,39 207.8,47.6 
	"/>
<path id="XMLID_3_" fill="#FFFFFF" d="M211,46.3c0.6,0.6,1.2,1,1.9,1.2c0.7,0.3,1.3,0.4,2.1,0.4c1.3,0,2.4-0.4,3.2-1.1
	c0.8-0.8,1.1-1.7,1.1-2.9c0-0.5-0.1-0.9-0.2-1.3c-0.1-0.4-0.4-0.8-0.6-1c-0.4-0.4-1.2-0.8-2.5-1.1h-0.1c-0.6-0.2-1-0.3-1.1-0.5
	c-0.2-0.2-0.3-0.4-0.3-0.7c0-0.3,0.1-0.5,0.4-0.7c0.2-0.2,0.6-0.3,0.9-0.3c0.4,0,0.8,0.1,1.1,0.2c0.4,0.2,0.8,0.4,1.1,0.7l1-2.2
	c-0.5-0.4-1.1-0.6-1.6-0.8c-0.6-0.2-1.1-0.3-1.8-0.3c-1.1,0-2.1,0.4-2.8,1.1c-0.8,0.7-1.1,1.5-1.1,2.7c0,0.9,0.2,1.5,0.7,2
	c0.5,0.5,1.2,0.9,2.4,1.1c0.8,0.2,1.3,0.4,1.5,0.7c0.2,0.2,0.4,0.5,0.4,0.9s-0.1,0.7-0.4,0.9c-0.3,0.2-0.6,0.3-1.1,0.3
	s-0.9-0.1-1.3-0.4s-0.9-0.7-1.3-1.1L211,46.3z"/>
</svg>
